<?xml version="1.0" encoding="UTF-8"?>
<svg xmlns="http://www.w3.org/2000/svg" xmlns:xlink="http://www.w3.org/1999/xlink" width="375pt" height="374.999991pt" viewBox="0 0 375 374.999991" version="1.2">
<defs>
<clipPath id="clip1">
  <path d="M 105.828125 113 L 253.25 113 L 253.25 279.75 L 105.828125 279.75 Z M 105.828125 113 "/>
</clipPath>
</defs>
<g id="surface1">
<g clip-path="url(#clip1)" clip-rule="nonzero">
<path style=" stroke:none;fill-rule:nonzero;fill:rgb(0%,0%,0%);fill-opacity:1;" d="M 192.847656 166.476562 C 193.402344 166.949219 193.742188 167.503906 194.253906 167.71875 C 197.789062 169.171875 201.027344 171.140625 204.09375 173.367188 C 205.074219 174.09375 206.222656 174.480469 207.460938 174.480469 C 214.230469 174.5625 221.046875 174.691406 227.820312 174.777344 C 228.84375 174.777344 229.738281 173.878906 229.820312 172.894531 C 229.90625 171.699219 229.992188 170.5 229.992188 169.300781 C 229.992188 167.460938 230.332031 165.707031 230.84375 163.953125 C 231.441406 162.070312 234.210938 161 235.742188 162.285156 C 236.808594 163.140625 237.703125 164.25 238.554688 165.363281 C 238.894531 165.792969 238.9375 166.519531 238.980469 167.074219 C 239.023438 168.660156 238.9375 170.285156 238.980469 171.867188 C 239.023438 172.640625 239.234375 173.410156 239.40625 174.265625 C 240.640625 174.648438 241.792969 174.90625 242.855469 175.335938 C 244.007812 175.761719 245.199219 175.761719 246.304688 176.019531 C 248.394531 176.488281 250.394531 177.472656 252.652344 177.347656 C 252.824219 177.347656 253.078125 177.859375 253.207031 178.203125 C 253.25 178.289062 253.035156 178.628906 252.910156 178.671875 C 250.523438 178.84375 248.136719 179.015625 245.753906 179.1875 C 243.15625 179.355469 240.554688 179.484375 238.257812 180.554688 C 237.105469 182.867188 236.425781 185.046875 236.507812 187.574219 C 236.550781 188.941406 236.125 190.355469 235.871094 191.722656 C 235.699219 192.492188 234.890625 192.535156 234.125 191.808594 C 233.996094 191.679688 233.824219 191.339844 233.742188 191.382812 C 233.441406 191.507812 232.972656 191.636719 232.929688 191.851562 C 231.996094 196.171875 231.867188 200.625 231.78125 205.03125 C 231.738281 207.425781 232.632812 209.738281 232.503906 212.175781 C 232.378906 214.789062 232.421875 217.398438 232.464844 220.007812 C 232.503906 222.40625 232.589844 224.800781 232.804688 227.195312 C 233.101562 230.40625 233.230469 233.574219 233.230469 236.78125 C 233.230469 237.765625 233.101562 238.792969 233.316406 239.777344 C 234.210938 244.355469 233.953125 248.976562 233.867188 253.597656 C 233.785156 259.417969 233.785156 259.289062 239.320312 259.375 C 241.917969 259.417969 244.476562 259.375 246.945312 260.617188 C 247.96875 261.128906 249.289062 261.042969 250.4375 261.257812 C 250.609375 261.300781 250.863281 261.558594 250.820312 261.6875 C 250.777344 262.027344 250.652344 262.5 250.4375 262.585938 C 249.542969 262.96875 248.605469 263.398438 247.628906 263.527344 C 245.242188 263.824219 242.855469 263.996094 240.472656 264.210938 C 239.066406 264.339844 237.660156 264.253906 236.296875 264.554688 C 233.101562 265.195312 229.949219 265.238281 226.925781 263.867188 C 226.371094 263.613281 225.777344 263.484375 225.179688 263.484375 C 221.773438 263.3125 218.40625 263.226562 215 263.097656 C 214.488281 263.097656 214.019531 263.699219 214.019531 264.382812 C 214.019531 265.066406 214.359375 265.453125 215.085938 265.539062 C 215.679688 265.582031 216.234375 265.664062 216.832031 265.835938 C 216.957031 265.878906 217.085938 266.136719 217.085938 266.308594 C 217.085938 266.480469 217.042969 266.734375 216.914062 266.777344 C 216.148438 266.992188 215.425781 267.25 214.660156 267.25 C 205.882812 267.378906 197.109375 267.464844 188.292969 267.589844 C 187.097656 267.589844 185.90625 267.71875 184.757812 267.804688 C 184.371094 267.847656 183.90625 268.0625 183.605469 267.890625 C 180.410156 266.308594 177.386719 267.804688 174.320312 268.363281 C 173.9375 268.449219 173.511719 268.449219 173.128906 268.53125 C 172.0625 268.746094 171.550781 269.429688 171.382812 270.628906 C 171.167969 272.382812 171.550781 274.265625 170.613281 275.9375 C 170.53125 276.0625 170.273438 276.105469 170.0625 276.105469 C 169.890625 276.105469 169.636719 276.0625 169.636719 275.976562 C 169.421875 274.996094 169.25 274.054688 169.125 273.070312 C 168.953125 271.871094 168.867188 270.671875 168.613281 269.515625 C 168.570312 269.21875 168.101562 268.832031 167.761719 268.746094 C 167.207031 268.574219 166.566406 268.53125 166.015625 268.53125 C 162.820312 268.488281 159.625 268.488281 156.429688 268.488281 C 147.441406 268.574219 138.457031 268.574219 129.46875 268.746094 C 125.890625 268.789062 122.269531 269.132812 118.691406 269.347656 C 117.753906 269.390625 116.945312 270.289062 116.730469 271.3125 C 116.261719 273.882812 115.878906 276.449219 115.367188 279.015625 C 115.324219 279.273438 114.816406 279.488281 114.515625 279.703125 C 114.429688 279.53125 114.261719 279.402344 114.21875 279.230469 C 114.175781 277.21875 114.175781 275.25 114.132812 273.238281 C 114.132812 272.253906 114.089844 271.230469 113.960938 270.246094 C 113.921875 269.859375 113.707031 269.429688 113.410156 269.21875 C 112.769531 268.746094 112.089844 268.363281 111.363281 267.976562 C 109.703125 267.164062 108.210938 266.050781 107.402344 264.425781 C 106.722656 263.011719 106.507812 261.386719 106.167969 259.847656 C 105.996094 259.074219 107.234375 257.75 108 257.835938 C 109.191406 257.964844 110.34375 258.261719 111.535156 258.347656 C 112.726562 258.433594 113.921875 258.261719 115.027344 257.023438 C 115.070312 254.667969 115.113281 252.058594 115.15625 249.449219 C 115.15625 249.105469 114.855469 248.761719 114.6875 248.421875 C 114.347656 248.59375 113.960938 248.722656 113.621094 248.890625 C 113.453125 248.59375 113.152344 248.25 113.152344 247.949219 C 113.238281 236.3125 113.066406 224.671875 113.535156 213.035156 C 113.878906 204.601562 113.664062 196.171875 113.75 187.742188 C 113.75 186.929688 113.664062 186.117188 113.664062 185.347656 C 113.621094 184.277344 113.238281 183.335938 112.214844 182.953125 C 109.449219 181.882812 108.042969 179.355469 106.296875 177.21875 C 105.871094 176.660156 105.914062 175.71875 105.871094 174.90625 C 105.828125 173.835938 106.59375 172.894531 107.53125 172.679688 C 108.128906 172.554688 108.679688 172.382812 109.277344 172.339844 C 112.855469 171.996094 113.707031 172.210938 113.835938 167.761719 C 113.878906 166.390625 114.515625 165.023438 114.6875 163.652344 C 114.941406 161.726562 116.261719 160.957031 117.796875 160.402344 C 119.457031 159.800781 121.503906 160.527344 122.609375 161.984375 C 123.332031 162.925781 123.972656 163.953125 124.78125 165.191406 C 124.527344 166.5625 124.1875 168.101562 123.929688 169.644531 C 123.757812 170.585938 124.613281 171.65625 125.589844 171.78125 C 126.570312 171.867188 127.59375 171.996094 128.574219 171.996094 C 136.15625 172.167969 143.738281 172.296875 151.363281 172.554688 C 154.003906 172.640625 156.515625 172.296875 158.984375 171.398438 C 161.03125 170.628906 163.160156 170.070312 165.246094 169.429688 C 166.058594 169.171875 166.566406 168.617188 166.953125 167.71875 C 165.203125 162.882812 163.585938 157.917969 162.734375 152.785156 C 162.054688 148.847656 161.585938 144.867188 161.117188 140.886719 C 160.816406 138.277344 160.773438 135.667969 160.476562 133.101562 C 160.09375 129.847656 160.433594 126.679688 160.988281 123.515625 C 161.5 120.691406 162.777344 118.207031 164.992188 116.285156 C 167.929688 113.714844 172.191406 114.1875 174.320312 117.566406 C 175.171875 118.894531 175.894531 120.390625 176.28125 121.933594 C 177.898438 128.351562 179.390625 134.8125 180.199219 141.359375 C 180.367188 142.769531 180.539062 144.140625 181.261719 145.382812 C 181.347656 145.550781 181.5625 145.679688 181.730469 145.722656 C 181.859375 145.765625 182.117188 145.636719 182.15625 145.507812 C 182.667969 144.226562 183.265625 142.941406 183.691406 141.617188 C 185.566406 135.882812 188.035156 130.402344 191.1875 125.269531 C 193.191406 122.015625 195.53125 119.023438 198.386719 116.453125 C 199.410156 115.511719 200.601562 114.785156 201.792969 114.058594 C 204.394531 112.558594 206.90625 114.484375 207.585938 116.496094 C 207.886719 117.4375 208.097656 118.464844 208.011719 119.449219 C 207.714844 124.070312 207.289062 128.648438 205.882812 133.101562 C 205.074219 135.582031 204.605469 138.148438 203.964844 140.675781 C 203.839844 141.273438 203.796875 141.914062 203.539062 142.429688 C 201.667969 146.195312 200.730469 150.300781 198.855469 154.109375 C 196.8125 158.132812 194.851562 162.324219 192.847656 166.476562 Z M 165.460938 202.121094 C 165.546875 202.035156 165.671875 201.949219 165.757812 201.90625 C 165.800781 202.035156 165.972656 202.164062 165.929688 202.25 C 165.800781 202.59375 165.546875 202.59375 165.332031 202.25 C 165.417969 202.292969 165.546875 202.335938 165.632812 202.335938 C 165.546875 202.378906 165.417969 202.378906 165.332031 202.421875 C 165.375 202.292969 165.417969 202.207031 165.460938 202.121094 Z M 168.230469 198.527344 C 168.867188 198.269531 169.464844 198.054688 170.101562 197.800781 C 170.0625 196.773438 169.976562 195.746094 169.933594 194.71875 C 170.316406 194.546875 170.445312 194.632812 170.316406 194.890625 C 170.230469 194.804688 170.144531 194.675781 170.101562 194.589844 C 169.933594 195.316406 169.761719 196.046875 170.273438 196.773438 C 170.402344 196.988281 170.1875 197.457031 170.144531 197.800781 C 169.804688 197.84375 169.421875 197.972656 169.082031 197.972656 C 168.699219 197.972656 168.484375 198.140625 168.398438 198.613281 Z M 159.839844 197.414062 L 160.136719 197.285156 C 160.136719 197.285156 159.964844 197.542969 159.964844 197.542969 C 159.242188 197.414062 158.644531 197.757812 158.089844 198.183594 C 156.558594 199.46875 155.195312 201.050781 153.492188 201.949219 C 150.339844 203.621094 147.015625 205.03125 143.652344 206.230469 C 141.394531 207.042969 139.179688 207.8125 137.347656 209.308594 C 136.410156 209.054688 135.601562 208.925781 134.878906 208.667969 C 133.640625 208.285156 132.917969 207.386719 132.664062 206.101562 C 131.683594 201.394531 132.363281 196.945312 134.835938 192.792969 C 135.429688 191.765625 136.199219 190.78125 136.75 189.753906 C 137.6875 188 138.496094 186.160156 139.308594 184.363281 C 139.648438 183.59375 139.09375 182.78125 138.242188 182.609375 C 137.261719 182.4375 136.28125 182.09375 135.304688 182.136719 C 131.339844 182.308594 127.335938 182.609375 123.375 182.910156 C 122.480469 182.992188 121.628906 183.976562 121.503906 185.003906 C 121.375 186.203125 121.289062 187.402344 121.289062 188.601562 C 121.332031 191.210938 121.460938 193.820312 121.503906 196.386719 C 121.542969 198.398438 121.585938 200.367188 121.542969 202.378906 C 121.503906 204.390625 121.289062 206.402344 121.246094 208.367188 C 121.203125 210.378906 121.628906 212.476562 121.160156 214.359375 C 120.648438 216.371094 120.566406 218.210938 120.992188 220.179688 C 121.078125 220.5625 120.992188 221.035156 120.820312 221.335938 C 118.945312 225.058594 119.882812 229.207031 119.03125 233.058594 C 118.988281 240.460938 118.820312 247.863281 117.925781 255.226562 C 117.796875 256.167969 118.179688 257.152344 118.351562 258.132812 C 119.03125 258.347656 119.585938 258.605469 120.183594 258.648438 C 122.398438 258.691406 124.570312 258.691406 126.785156 258.648438 C 138.15625 258.347656 149.53125 258.304688 160.902344 258.691406 C 163.074219 258.777344 165.289062 258.519531 167.460938 258.347656 C 168.144531 258.304688 168.910156 257.40625 168.996094 256.722656 C 169.082031 255.738281 169.207031 254.710938 169.207031 253.726562 C 169.378906 246.109375 169.550781 238.492188 170.273438 230.917969 C 170.828125 225.144531 171.082031 219.324219 171.425781 213.503906 C 171.507812 211.707031 171.464844 209.910156 171.425781 208.113281 C 171.425781 208.027344 171.125 207.898438 170.957031 207.855469 C 170.785156 207.8125 170.570312 207.726562 170.402344 207.8125 C 168.910156 208.539062 168.101562 209.996094 167.078125 211.191406 C 165.886719 212.5625 164.523438 213.761719 162.820312 214.402344 C 162.09375 214.660156 161.199219 214.914062 160.519531 214.789062 C 158.984375 214.445312 157.496094 213.847656 156.046875 213.246094 C 155.578125 213.03125 155.195312 212.433594 154.941406 211.921875 C 154.386719 210.851562 154.085938 209.652344 154.472656 208.453125 C 154.980469 206.957031 155.578125 205.460938 156.21875 204.003906 C 156.898438 202.550781 157.792969 201.222656 158.390625 199.769531 C 158.558594 199.339844 158.132812 198.699219 158.050781 198.183594 C 159.113281 198.570312 159.113281 198.570312 159.839844 197.414062 Z M 180.496094 192.964844 C 178.539062 195.445312 178.152344 196.089844 177.8125 198.183594 C 177.558594 199.769531 177.386719 201.351562 177.21875 202.976562 C 176.789062 207.386719 176.535156 211.792969 175.9375 216.15625 C 175.042969 223.132812 174.832031 230.148438 173.894531 237.082031 C 173.554688 239.648438 173.425781 242.257812 173.296875 244.871094 C 173.085938 248.679688 172.914062 252.484375 172.746094 256.292969 C 172.746094 256.507812 172.828125 256.679688 172.828125 256.894531 C 172.914062 257.578125 173.722656 258.433594 174.40625 258.519531 C 175.980469 258.691406 177.558594 258.90625 179.175781 258.90625 C 187.355469 258.992188 195.53125 259.035156 203.710938 259.117188 C 208.523438 259.160156 213.296875 259.246094 218.109375 259.289062 C 220.492188 259.332031 222.921875 259.375 225.308594 259.375 C 225.902344 259.375 226.5 259.375 227.097656 259.332031 C 228.542969 259.246094 229.355469 258.433594 229.3125 257.152344 C 229.269531 256.550781 229.226562 255.953125 229.183594 255.351562 C 228.800781 248.335938 228.332031 241.316406 228.117188 234.300781 C 227.777344 223.261719 227.992188 212.21875 228.757812 201.222656 C 229.183594 195.019531 229.226562 188.8125 229.394531 182.566406 C 229.4375 181.410156 228.714844 180.640625 227.605469 180.597656 C 224.839844 180.46875 222.027344 180.382812 219.214844 180.296875 C 217.980469 180.253906 216.957031 179.957031 216.105469 178.886719 C 215.425781 178.03125 214.316406 178.117188 213.335938 178.371094 C 213.082031 178.457031 212.65625 178.972656 212.699219 179.101562 C 213.890625 182.136719 216.148438 184.449219 218.023438 187.015625 C 218.832031 188.128906 219.855469 189.15625 220.621094 190.3125 C 221.175781 191.125 221.644531 192.066406 221.855469 193.050781 C 222.15625 194.417969 223.519531 194.71875 224.113281 195.746094 C 224.414062 196.257812 224.199219 197.585938 223.6875 197.929688 C 223.347656 198.140625 223.050781 198.441406 222.707031 198.570312 C 219.429688 199.683594 216.105469 200.023438 212.65625 199.640625 C 210.652344 199.425781 208.738281 198.828125 207.035156 197.757812 C 205.160156 196.601562 203.285156 195.488281 201.496094 194.246094 C 200.855469 193.820312 200.390625 193.136719 199.921875 192.492188 C 199.453125 191.851562 199.152344 191.039062 198.640625 190.484375 C 195.277344 187.058594 192.039062 183.507812 188.078125 180.726562 C 187.609375 180.382812 187.015625 180.210938 186.460938 180 C 186.289062 179.957031 185.949219 179.957031 185.90625 180.042969 C 185.695312 180.339844 185.351562 180.769531 185.4375 180.984375 C 186.332031 182.992188 187.3125 184.917969 188.207031 186.929688 C 189.65625 190.011719 191.101562 193.09375 192.464844 196.214844 C 192.847656 197.113281 192.890625 198.140625 193.019531 199.125 C 193.105469 199.8125 192.082031 200.710938 191.445312 200.625 C 188.164062 200.066406 185.480469 198.484375 183.265625 195.960938 C 182.414062 194.933594 181.902344 193.519531 180.496094 192.964844 Z M 176.40625 165.492188 C 177.089844 163.609375 177.132812 161.597656 177.046875 159.585938 C 176.960938 157.191406 176.75 154.796875 176.492188 152.398438 C 175.894531 146.40625 175.214844 140.460938 173.980469 134.554688 C 173.253906 131.21875 172.574219 127.878906 171.722656 124.628906 C 171.210938 122.703125 170.445312 120.863281 169.71875 119.023438 C 169.550781 118.59375 168.527344 118.421875 168.1875 118.722656 C 167.761719 119.109375 167.25 119.449219 166.910156 119.921875 C 164.863281 122.832031 164.097656 126.082031 164.269531 129.589844 C 164.480469 133.785156 164.90625 137.976562 165.246094 142.171875 C 165.886719 149.875 167.929688 157.148438 170.402344 164.335938 C 171.382812 167.246094 172.445312 167.589844 175.386719 166.261719 C 175.8125 166.089844 176.066406 165.75 176.40625 165.492188 Z M 182.753906 165.835938 C 182.753906 166.476562 182.667969 166.691406 182.753906 166.863281 C 182.925781 167.160156 183.136719 167.589844 183.394531 167.632812 C 183.691406 167.71875 184.289062 167.546875 184.414062 167.332031 C 186.800781 163.394531 189.144531 159.5 191.101562 155.308594 C 195.320312 146.40625 198.214844 137.078125 200.984375 127.664062 C 201.710938 125.183594 202.050781 122.617188 202.519531 120.050781 C 202.5625 119.878906 202.433594 119.535156 202.347656 119.492188 C 202.007812 119.40625 201.582031 119.320312 201.285156 119.40625 C 200.941406 119.535156 200.601562 119.792969 200.304688 120.089844 C 196.46875 123.941406 193.785156 128.648438 191.019531 133.269531 C 189.996094 134.984375 189.230469 136.867188 188.632812 138.75 C 185.863281 147.777344 183.945312 156.976562 182.753906 165.835938 Z M 193.0625 177.6875 C 193.105469 179.1875 194.765625 179.1875 195.320312 180.253906 C 196.726562 182.992188 199.027344 184.917969 201.199219 186.929688 C 204.433594 189.96875 204.691406 190.3125 208.523438 189.027344 C 209.25 188.769531 210.101562 188.855469 210.910156 188.726562 C 212.402344 188.515625 212.953125 187.359375 212.144531 186.203125 C 210.101562 183.207031 207.542969 180.726562 204.5625 178.714844 C 204.09375 178.371094 203.539062 178.074219 202.988281 177.988281 C 201.625 177.730469 200.21875 177.304688 198.855469 177.429688 C 196.9375 177.644531 194.9375 176.617188 193.0625 177.6875 Z M 152.296875 182.011719 C 151.871094 182.050781 150.507812 182.136719 149.105469 182.308594 C 147.953125 182.480469 146.804688 183.679688 147.015625 184.792969 C 147.398438 186.460938 146.804688 187.402344 145.484375 188.257812 C 144.289062 189.027344 143.269531 189.96875 142.714844 191.296875 C 142.074219 192.964844 141.523438 194.675781 141.566406 196.515625 C 141.566406 196.902344 141.691406 197.414062 141.949219 197.585938 C 142.160156 197.757812 142.757812 197.714844 143.011719 197.5 C 148.210938 193.820312 152.9375 189.542969 157.113281 184.707031 C 157.367188 184.40625 157.539062 184.019531 157.582031 183.636719 C 157.582031 183.292969 157.453125 182.78125 157.195312 182.652344 C 156.046875 181.882812 154.640625 182.09375 152.296875 182.011719 Z M 175 265.453125 C 180.199219 266.523438 180.199219 266.523438 184.671875 265.410156 C 177.941406 264.46875 177.941406 264.46875 175 265.453125 Z M 193.957031 174.265625 C 194.339844 174.222656 194.722656 174.179688 195.105469 174.09375 C 195.277344 174.050781 195.574219 173.878906 195.574219 173.75 C 195.53125 173.410156 195.492188 172.980469 195.277344 172.722656 C 194.722656 172.125 193.957031 171.867188 193.148438 171.953125 C 192.550781 171.996094 192.082031 172.296875 191.828125 172.894531 C 191.65625 173.367188 192.167969 174.050781 192.808594 174.136719 C 193.191406 174.222656 193.574219 174.222656 193.957031 174.265625 Z M 173.296875 224.714844 C 174.023438 224.117188 173.894531 223.261719 173.894531 222.488281 C 173.894531 221.675781 174.109375 220.734375 173.339844 220.007812 C 172.957031 221.632812 172.703125 223.132812 173.296875 224.714844 Z M 182.625 263.054688 C 184.457031 263.226562 185.351562 263.355469 186.289062 263.398438 C 186.417969 263.398438 186.585938 263.226562 186.714844 263.140625 C 186.585938 263.011719 186.417969 262.839844 186.289062 262.839844 C 185.394531 262.882812 184.457031 262.96875 182.625 263.054688 Z M 191.914062 263.011719 C 191.914062 263.054688 191.914062 263.097656 191.914062 263.140625 C 192.59375 263.183594 193.234375 263.226562 193.914062 263.269531 C 193.914062 263.183594 193.914062 263.097656 193.914062 262.96875 C 193.234375 263.011719 192.550781 263.011719 191.914062 263.011719 Z M 172.402344 231.390625 C 172.402344 231.21875 172.402344 231.046875 172.402344 230.835938 C 172.320312 231.003906 172.191406 231.175781 172.148438 231.347656 C 172.105469 231.519531 172.191406 231.691406 172.191406 231.859375 C 172.277344 231.734375 172.359375 231.5625 172.402344 231.390625 Z M 172.53125 236.695312 C 172.660156 236.269531 172.53125 236.011719 172.191406 236.097656 C 172.105469 236.097656 172.0625 236.398438 172.0625 236.523438 C 172.0625 236.695312 172.148438 236.824219 172.234375 236.996094 C 172.320312 236.910156 172.402344 236.824219 172.53125 236.695312 Z M 229.820312 219.792969 C 229.949219 219.75 230.121094 219.75 230.164062 219.664062 C 230.207031 219.539062 230.25 219.324219 230.164062 219.195312 C 229.949219 218.765625 229.78125 218.808594 229.695312 219.324219 C 229.652344 219.496094 229.78125 219.664062 229.820312 219.792969 Z M 220.75 179.015625 C 220.75 178.84375 220.75 178.585938 220.707031 178.585938 C 220.535156 178.542969 220.324219 178.585938 220.109375 178.585938 C 220.109375 178.714844 220.109375 178.972656 220.152344 178.972656 C 220.367188 179.058594 220.535156 179.015625 220.75 179.015625 Z M 220.75 179.015625 "/>
</g>
</g>
</svg>
